PathFileType	4	(X/Y/Z)	Patient4_TMGait_0pt6_01_left_26.trc.trc
DataRate	CameraRate	NumFrames	NumMarkers	Units	OrigDataRate	OrigDataStartFrame	OrigNumFrames
81.395348837209	81.395348837209	6	33	mm	81.395348837209	36	       141
Frame#	Time	Sacral			L.Shoulder			Chest			R.Shoulder			Neck			R.ASIS			L.ASIS			R.Thigh.Superior			R.Thigh.Lateral			R.Thigh.Inferior			R.Patella			L.Thigh.Superior			L.Thigh.Lateral			L.Thigh.Inferior			L.Patella			L.Shank.Superior			L.Shank.Lateral			L.Shank.Inferior			R.Shank.Superior			R.Shank.Lateral			R.Shank.Inferior			R.Heel			R.Midfoot.Superior			R.Midfoot.Lateral			R.Toe			L.Heel			L.Midfoot.Lateral			L.Midfoot.Superior			L.Toe			L.Elbow			L.Wrist			R.Elbow			R.Wrist			
		X1	Y1	Z1	X2	Y2	Z2	X3	Y3	Z3	X4	Y4	Z4	X5	Y5	Z5	X6	Y6	Z6	X7	Y7	Z7	X8	Y8	Z8	X9	Y9	Z9	X10	Y10	Z10	X11	Y11	Z11	X12	Y12	Z12	X13	Y13	Z13	X14	Y14	Z14	X15	Y15	Z15	X16	Y16	Z16	X17	Y17	Z17	X18	Y18	Z18	X19	Y19	Z19	X20	Y20	Z20	X21	Y21	Z21	X22	Y22	Z22	X23	Y23	Z23	X24	Y24	Z24	X25	Y25	Z25	X26	Y26	Z26	X27	Y27	Z27	X28	Y28	Z28	X29	Y29	Z29	X30	Y30	Z30	X31	Y31	Z31	X32	Y32	Z32	X33	Y33	Z33	

36	32.060000000000	743.241492741780	999.508704853508	481.266985530462	876.759607304829	1426.706364851550	286.074297476011	1001.049798049820	1364.221043691469	434.304652909690	935.817155462388	1437.539697622695	615.100823522594	877.245076824785	1488.565110121527	439.254270445091	975.366282275814	932.617776560782	582.218405271412	946.222570741794	958.884020904110	309.029325879029	994.927922554219	721.860645893672	553.342750636642	906.293727140713	618.010142448030	616.928081129216	976.872819794278	555.554028671023	537.696583801929	961.838898336275	449.529176287657	552.898683104975	1020.770007162809	763.603639447918	345.091541144287	951.796456263705	636.723505996949	283.780121054590	1045.742055319798	571.347715940487	349.077310360645	1055.233591482040	501.218080251165	357.487983241486	1036.013796625078	426.583677945654	349.343212228511	958.908072843865	302.908222522386	300.115059344750	1023.726224946845	198.968591582354	371.400552671211	889.369384896463	381.148792867644	558.522523903768	775.833677752961	327.601573119808	621.292732998318	766.952672878299	221.517965540539	564.409450477797	570.659788765418	125.471490868353	538.567522385489	747.457349913241	110.299959813305	575.615724814743	643.438222141582	85.165689424112	611.444818685260	836.378578412849	33.752594554585	602.447016565220	910.301324134248	37.782908055157	417.668133109074	981.648042139640	35.854383125820	334.215474177685	1063.674079687608	98.812395558189	357.953048676360	1191.882201491377	50.735816694339	326.088737841108	806.948841312121	1071.457275697054	195.694935762087	830.378019404970	812.576491361422	201.450402989504	1021.623799516472	1103.210811360144	736.796825780543	1264.948118435474	1058.730330236718	676.827808108829	
37	32.072285714286	742.955456985986	1000.242656300341	478.084981022023	878.298593535289	1427.709181446412	283.568745557192	1001.319227841148	1365.114650863227	432.774651900115	934.732418764590	1438.443719262689	613.031518159284	877.418915340390	1489.482499675446	436.803404418299	974.570818932923	933.439829655353	580.345440649306	946.885683662439	959.988622452735	306.996281538869	1000.159194311159	724.517117421959	551.680001624400	914.861646237546	618.481280721507	615.507032800778	988.164252814969	557.411129035236	536.983196326685	974.687862025275	449.682933901528	553.412418750496	1019.868092961778	763.057358926303	342.170844168642	948.959716448265	636.793169416673	282.106269029693	1042.214930971439	570.546889160395	347.287088715085	1051.010066320062	500.616844068083	356.304398237665	1031.396146564558	426.079302015597	348.282104622204	953.568583953872	302.818839405078	299.323470378064	1017.332053614466	198.659534775013	371.071254566594	899.794333015060	382.300531574597	558.410319170120	783.568399916601	333.388888770912	620.110325950735	771.710239081300	227.152374812950	564.150677902591	572.346473166574	141.235955894502	536.980570381270	747.323052371996	114.325631443491	575.401154047976	641.654970802018	96.194091278129	610.331337116000	829.739763874695	32.685193949287	602.606364500859	902.957862931905	37.767276536215	417.587507425336	974.284814150666	35.802755855897	334.111237468267	1056.354627312572	98.689773485119	357.889615393082	1184.561820389127	50.641281089876	325.991012380513	815.818338397535	1071.271770831736	190.816890040905	847.589573023254	813.171319495950	195.764847566406	1012.720741784830	1101.718536354171	734.388614376146	1254.027581546030	1044.136059777432	675.114557211364	
38	32.084571428571	742.465970114206	1000.787100771473	474.961438318065	879.869968613342	1428.565070218741	281.161811861575	1001.505153695332	1365.823841661994	431.402407974874	933.463864338561	1439.092216855394	611.112347528612	877.571504699079	1490.262337884576	434.474836506910	973.612699252559	934.067972579573	578.571953400806	947.361669722033	960.897340368781	305.071945778220	1005.544110582643	727.419072161941	550.211899332020	923.662779166990	619.235572101370	614.288600270491	999.686817962855	559.692496081438	536.502646873640	987.832429084105	450.438904749036	553.891617244627	1018.658457436533	762.313837929216	339.174876217387	945.850777017209	636.751022471998	280.387670542331	1038.473868691358	569.674894119457	345.388647406165	1046.565718865848	499.934172860513	354.949397019634	1026.576589307266	425.499497197386	347.093561871342	948.011882638901	302.620218702963	298.500824626754	1010.828061881721	198.281254727869	370.676887242217	910.764978865627	383.872266536700	558.254041149040	792.089576177292	339.490024069551	618.875943130373	777.344838776681	233.258545664494	563.755067296749	575.511627104471	157.655925346266	535.047346039369	748.020526091782	119.026039254640	574.979189256165	640.990940271317	108.051421188135	608.937342731486	823.680007171921	31.705116526436	602.764350540508	895.535392924853	37.724685892684	417.525281208967	966.837872038172	35.713975319406	334.020959534589	1048.999425909402	98.487749399926	357.839820646359	1177.199019585137	50.359755077899	325.916335373837	824.721757486578	1071.188259995316	185.886743723073	865.312535379469	814.196535139867	190.096860117052	1003.481565359584	1100.036530569874	731.898131970704	1242.040943986708	1028.971926584837	673.741292317643	
39	32.096857142857	741.790545510022	1001.146796114415	471.925199176302	881.438839115570	1429.264245202614	278.880499628802	1001.603798471589	1366.352071036962	430.196165105801	932.030707175537	1439.490626761692	609.359999367102	877.700806985783	1490.908372793260	432.293271689045	972.528219416769	934.525601544102	576.858481180654	947.649495855743	961.618188643099	303.239859095425	1010.944680526380	730.555867733738	548.886966754142	932.528527867160	620.317866368850	613.236814616433	1011.198129236485	562.432385625490	536.181679205493	1001.059640069152	451.825590969916	554.270764134510	1017.196582533815	761.441668765149	336.195197948713	942.607159037872	636.640479895432	278.622129714338	1034.617006860144	568.770083728174	343.428937860412	1041.995753593287	499.192906007603	353.452962911168	1021.643322086990	424.862685108147	345.807673367888	942.339583553537	302.341803806054	297.620700720159	1004.272044881246	197.851504191947	370.221404293132	922.084717193029	385.883300236839	558.010071629019	801.238716760981	345.807134150477	617.586162365044	783.763193074560	239.724316035662	563.205068375298	580.099185732541	174.239497130258	532.832248180333	749.621638905585	124.343261156636	574.341348687619	641.551747121822	120.374775290144	607.278982090310	818.513568023019	30.971408457643	602.846127510718	888.069008113331	37.667967915644	417.470560763135	959.345191598389	35.605485306650	333.936744417056	1041.635772033432	98.234465181262	357.795823515247	1169.822647144224	49.934556071039	325.859435061785	833.629698508571	1071.201228779983	180.945833149262	883.454328037507	815.686428725945	184.480296334400	993.971143514177	1098.176400855905	729.345759877209	1228.924002638825	1013.275398107358	672.731857250026	
40	32.109142857143	740.962109826099	1001.355414603724	468.999333297242	882.963433836999	1429.826272193705	276.750643124090	1001.612612696391	1366.728764377291	429.154339696934	930.464262328728	1439.672501474602	607.782352736942	877.802784488347	1491.444305162940	430.279292640760	971.354700555288	934.872331881252	575.158632066076	947.762006591040	962.182533771841	301.476950333581	1016.220728281910	733.918545952384	547.641619454196	941.300565236319	621.763371709969	612.309624847218	1022.476166109029	565.653961714059	535.940663864434	1014.183290968305	453.855007234584	554.503645507695	1015.549468861149	760.510961044297	333.305089992125	939.327381700531	636.500622941964	276.824920420505	1030.714990074781	567.861025510977	341.454313514317	1037.370554559799	498.415663899583	351.862992958638	1016.659323277267	424.191823134054	344.464647329172	936.622033157667	302.018227810891	296.678597183642	997.703498806262	197.392182497669	369.714884540720	933.579073303374	388.339575022681	557.653816706930	810.865020128987	352.225559225188	616.249728541729	790.883447381170	246.405327245218	562.497746765382	586.003570527232	190.434261799769	530.432928919533	752.227520148638	130.154162217336	573.488523483765	643.435341076540	132.721284063228	605.395870566138	814.616185184271	30.659616362520	602.753805308780	880.587686479746	37.609496037081	417.414240873707	951.838179776786	35.492708863309	333.852342504715	1034.281670383493	97.958521201274	357.749168007015	1162.452909107186	49.415658974552	325.812564573212	842.525095406971	1071.331019894870	176.040968203210	901.919968334907	817.695086328197	178.953159663386	984.263840005347	1096.188554121375	726.758509917641	1214.608040628578	997.111096056731	672.098545353416	
41	32.121428571429	740.027175039509	1001.466974722723	466.199627883671	884.401064810059	1430.294380479416	274.792871303188	1001.530930665551	1367.003619212557	428.266104256676	928.802191113318	1439.692626131191	606.377885885464	877.871057126455	1491.907928718165	428.445961658048	970.128988589275	935.190825962822	573.432825704326	947.728664508496	962.638157633039	299.760798673464	1021.243923908419	737.497508127896	546.410012723417	949.840274660364	623.593578966905	611.463900334896	1033.332947747723	569.363878531133	535.703000272607	1027.048553485458	456.522105288188	554.563203613038	1013.786341191130	759.580255829512	330.558231322391	936.064814054942	636.363316387646	275.027900125757	1026.805313228418	566.965479773036	339.509473176171	1032.728996534141	497.622658118450	350.238626519548	1011.657849185158	423.511242155319	343.109200691141	930.893137370663	301.684379967786	295.691069684014	991.142348303753	196.925926864625	369.172005182033	945.103360714821	391.230617696447	557.178282570810	820.835064710774	358.614648260631	614.887022389131	798.643363115353	253.128467882924	561.643845675769	593.083531336318	205.665449183235	527.971697371264	755.962890567503	136.274676515804	572.431205634579	646.728819673398	144.601167903132	603.349560556453	812.402986619029	30.926747511183	602.379934915986	873.111481794717	37.559702923567	417.350237779600	944.338972349800	35.387774591356	333.763913533743	1026.945666533089	97.684600024055	357.693077362642	1155.100328780994	48.851324830123	325.767954862045	851.395662200247	1071.619624933067	171.221628301533	920.610977884023	820.291182037729	173.556336092770	974.441045813764	1094.155808953572	724.167710402035	1199.027657508742	980.586061335856	671.843077715691	
